<svg fill="none" height="24" viewBox="0 0 24 24" width="24" xmlns="http://www.w3.org/2000/svg"><path clip-rule="evenodd" d="m11.5353 3.5185c.1521-.33423.1087-.72491-.1129-1.01768-.2216-.29276-.5859-.44052-.9488-.38488-4.79862.73558-8.4736 4.87975-8.4736 9.88406 0 5.5229 4.47715 10 10 10 5.5228 0 10-4.4771 10-10 0-.0935-.0013-.1868-.0038-.2797-.0102-.3674-.221-.6997-.5491-.8653s-.7206-.1378-1.0222.0722c-.9709.6764-2.1501 1.0728-3.4249 1.0728-3.3137 0-6-2.68625-6-5.99996 0-.88702.1918-1.72652.5353-2.48154z" fill="#292929" fill-rule="evenodd"/></svg>